<svg width="32" height="32" viewBox="0 0 32 32" xmlns="http://www.w3.org/2000/svg" role="img" aria-label="Stop Doing List 不做清单">
  <rect x="2" y="2" width="28" height="28" rx="6" fill="#c0392b"/>
  <path d="M289 395Q314 370 322.5 349.0Q331 328 335 277Q339 217 348.5 214.0Q358 211 366 190Q370 178 375.5 174.5Q381 171 389 173Q402 177 471.0 187.5Q540 198 560 203Q579 209 617.0 204.5Q655 200 677 191Q723 169 713.0 142.0Q703 115 648 116Q527 117 462.0 109.0Q397 101 345 77Q323 67 281.5 67.5Q240 68 225 78Q210 87 198 116L185 145L216 173L247 201L248 300Q249 399 256 408Q262 414 268.0 411.5Q274 409 289 395ZM433 728 459 701Q487 669 500.0 637.0Q513 605 513 558Q514 490 520 487Q521 486 531 490Q548 494 609.0 492.5Q670 491 678 484Q686 477 686.0 458.0Q686 439 678 429Q670 418 608.0 393.5Q546 369 534.5 357.0Q523 345 517 283Q515 247 511.5 234.0Q508 221 501 219Q485 217 468.5 237.0Q452 257 444 290Q433 329 420 348Q409 363 409.0 369.0Q409 375 420 394Q432 421 438 516Q445 648 438 698Z" transform="translate(16.0 16.0) scale(0.028765 -0.028765) translate(-449.893 -397.738)" fill="#ffffff"/>
</svg>
